# xmcd
#
# Track frame offsets:
#	150
#	37986
#	63707
#	68260
#	94226
#	120938
#
# Disc length: 2026 seconds
#
# Revision: 3
# Processed by: cddbd v1.5.2PL0 Copyright (c) Steve Scherf et al.
# Submitted via: dBpowerAMP V4.0
#
DISCID=4407e806
DTITLE=Black Light Orchestra - Once Upon A Time...
DYEAR=1977
DGENRE=Disco
TTITLE0=Morricone
TTITLE1=Theme For Black Light
TTITLE2=Fifty Eight
TTITLE3=Tribute To Barry
TTITLE4=From Genesis To Exodus
TTITLE5=Touch Me, Take Me
EXTD=
EXTT0=
EXTT1=
EXTT2=
EXTT3=
EXTT4=
EXTT5=
PLAYORDER=
